<svg width="40" height="40" viewBox="0 0 40 40" fill="none" xmlns="http://www.w3.org/2000/svg">
<g clip-path="url(#clip0_869_1802)">
<path d="M29.0577 32.6031H21.5251L20.737 31.815L22.7147 29.8372C22.932 29.6199 23.0227 29.3108 22.9572 29.0105C22.8917 28.7103 22.6807 28.4671 22.3928 28.36L12.0695 24.5179C11.7071 24.383 11.3119 24.469 11.0384 24.7427C10.7648 25.0162 10.6787 25.4114 10.8137 25.7738L13.3553 32.6031H3.00516C1.99422 32.6031 1.17188 31.7807 1.17188 30.7699V18.1299C1.17188 17.8062 0.909609 17.5439 0.585938 17.5439C0.262266 17.5439 0 17.8062 0 18.1299V30.7699C0 32.4269 1.34812 33.775 3.00516 33.775H13.7915L14.6556 36.097C14.7627 36.3851 15.006 36.5961 15.3063 36.6616C15.6066 36.7271 15.9158 36.6364 16.1329 36.4191L18.1106 34.4414L20.1239 36.4547C20.3143 36.645 20.5643 36.74 20.8143 36.74C21.0644 36.74 21.3145 36.6449 21.5048 36.4546L22.7502 35.2093C23.1309 34.8286 23.1308 34.209 22.7502 33.8283C22.7502 33.8283 22.7502 33.8283 22.7501 33.8283L22.697 33.7752H29.0576C29.3813 33.7752 29.6435 33.5129 29.6435 33.1893C29.6435 32.8656 29.3812 32.6031 29.0577 32.6031ZM20.8144 35.4876L18.525 33.1982C18.4105 33.0839 18.2606 33.0267 18.1106 33.0267C17.9607 33.0267 17.8107 33.0839 17.6962 33.1982L15.6053 35.2892L12.0608 25.7651L21.5848 29.3097L19.4938 31.4007C19.265 31.6296 19.265 32.0005 19.4939 32.2293L21.7833 34.5186L20.8144 35.4876Z" fill="#0078D4"/>
<path d="M36.9948 3.26074H34.9463C34.6226 3.26074 34.3603 3.52301 34.3603 3.84668C34.3603 4.17035 34.6226 4.43262 34.9463 4.43262H36.9948C38.0057 4.43262 38.8281 5.25496 38.8281 6.2659V9.93707H1.17188V6.2659C1.17188 5.25504 1.99422 4.43262 3.00516 4.43262H32.2363C32.56 4.43262 32.8223 4.17035 32.8223 3.84668C32.8223 3.52301 32.56 3.26074 32.2363 3.26074H3.00516C1.34812 3.26074 0 4.60887 0 6.2659V15.4934C0 15.8171 0.262266 16.0793 0.585938 16.0793C0.909609 16.0793 1.17188 15.8171 1.17188 15.4934V11.109H38.8281V30.7701C38.8281 31.781 38.0058 32.6034 36.9948 32.6034H31.8652C31.5416 32.6034 31.2793 32.8657 31.2793 33.1893C31.2793 33.513 31.5416 33.7753 31.8652 33.7753H36.9948C38.6519 33.7753 40 32.4271 40 30.7701V6.2659C40 4.60887 38.6519 3.26074 36.9948 3.26074Z" fill="#0078D4"/>
<path d="M3.88281 7.18492C3.88281 7.78438 4.36875 8.27031 4.96812 8.27031C5.5675 8.27031 6.05344 7.78438 6.05344 7.18492C6.05344 6.58547 5.5675 6.09961 4.96812 6.09961C4.36875 6.09961 3.88281 6.58547 3.88281 7.18492Z" fill="#0078D4"/>
<path d="M7.2207 7.18492C7.2207 7.78438 7.70664 8.27031 8.30602 8.27031C8.90539 8.27031 9.39133 7.78438 9.39133 7.18492C9.39133 6.58547 8.90539 6.09961 8.30602 6.09961C7.70664 6.09961 7.2207 6.58547 7.2207 7.18492Z" fill="#0078D4"/>
<path d="M10.5605 7.18492C10.5605 7.78438 11.0465 8.27031 11.6459 8.27031C12.2452 8.27031 12.7312 7.78438 12.7312 7.18492C12.7312 6.58547 12.2452 6.09961 11.6459 6.09961C11.0465 6.09961 10.5605 6.58547 10.5605 7.18492Z" fill="#0078D4"/>
<path d="M7.1734 24.009H7.17676C7.42441 24.009 7.64551 23.8532 7.72863 23.6198L9.18004 19.547L10.5669 23.6124C10.6475 23.8487 10.8693 24.008 11.119 24.0091H11.1214C11.3703 24.0091 11.592 23.8519 11.6744 23.6169L13.6419 18.0039C13.7489 17.6986 13.5882 17.3642 13.2827 17.2571C12.9775 17.1501 12.643 17.3109 12.5359 17.6164L11.1289 21.6303L9.74668 17.5784C9.58996 17.0635 8.80356 17.0587 8.6402 17.5709L7.18676 21.6494L5.80426 17.6262C5.6991 17.3201 5.36582 17.1571 5.05973 17.2625C4.75371 17.3677 4.59082 17.701 4.69606 18.0071L6.62262 23.6135C6.70348 23.8489 6.92441 24.0075 7.1734 24.009Z" fill="#0078D4"/>
<path d="M18.0132 24.009H18.0166C18.2643 24.009 18.4854 23.8533 18.5685 23.6198L20.0199 19.547L21.4068 23.6124C21.4874 23.8487 21.7091 24.008 21.9589 24.0091H21.9613C22.2101 24.0091 22.4318 23.8519 22.5143 23.6169L24.4818 18.004C24.5888 17.6986 24.428 17.3643 24.1225 17.2572C23.8174 17.1501 23.4829 17.3109 23.3757 17.6164L21.9687 21.6304L20.5865 17.5784C20.4297 17.0634 19.6434 17.0587 19.48 17.5709L18.0266 21.6494L16.6441 17.6263C16.5389 17.3202 16.2055 17.1572 15.8996 17.2626C15.5936 17.3678 15.4307 17.7011 15.5359 18.0072L17.4625 23.6136C17.5434 23.849 17.7643 24.0076 18.0132 24.009Z" fill="#0078D4"/>
<path d="M28.6794 24.009H28.6827C28.9304 24.009 29.1514 23.8532 29.2346 23.6198L30.686 19.547L32.0729 23.6124C32.1535 23.8487 32.3752 24.008 32.625 24.0091H32.6274C32.8762 24.0091 33.0979 23.8519 33.1804 23.6169L35.1478 18.0039C35.2548 17.6986 35.094 17.3642 34.7886 17.2571C34.4833 17.1501 34.1489 17.3109 34.0418 17.6164L32.6348 21.6303L31.2526 17.5784C31.096 17.0635 30.3094 17.0587 30.1461 17.5709L28.6927 21.6494L27.3101 17.6263C27.205 17.3203 26.8721 17.1573 26.5656 17.2626C26.2596 17.3678 26.0967 17.7011 26.2019 18.0071L28.1286 23.6135C28.2095 23.8489 28.4304 24.0075 28.6794 24.009Z" fill="#0078D4"/>
</g>
<defs>
<clipPath id="clip0_869_1802">
<rect width="40" height="40" fill="white"/>
</clipPath>
</defs>
</svg>
