<svg width="41" height="40" viewBox="0 0 41 40" fill="none" xmlns="http://www.w3.org/2000/svg">
<g clip-path="url(#clip0_869_1817)">
<path d="M38.939 2.27637H7.32927C6.48374 2.27637 5.76829 2.95929 5.76829 3.83734V7.54466H2.06098C1.18293 7.54466 0.5 8.22759 0.5 9.10564V36.1625C0.5 37.0081 1.18293 37.7235 2.06098 37.7235H33.6707C34.5163 37.7235 35.2317 37.0406 35.2317 36.1625V32.4552H38.939C39.7845 32.4552 40.5 31.7723 40.5 30.8943V3.83734C40.5 2.95929 39.8171 2.27637 38.939 2.27637ZM7.32927 3.57718H38.939C39.0691 3.57718 39.1992 3.67474 39.1992 3.83734V8.32515H7.06911V3.83734C7.06911 3.67474 7.19919 3.57718 7.32927 3.57718ZM2.06098 8.84547H5.76829V13.5934H1.80081V9.10564C1.80081 8.97555 1.89837 8.84547 2.06098 8.84547ZM33.9309 36.1625C33.9309 36.2926 33.8333 36.4227 33.6707 36.4227H2.06098C1.93089 36.4227 1.80081 36.3251 1.80081 36.1625V14.8943H5.76829V30.8943C5.76829 31.7398 6.45122 32.4552 7.32927 32.4552H33.9309V36.1625ZM38.939 31.1544H7.32927C7.19919 31.1544 7.06911 31.0569 7.06911 30.8943V9.62596H39.1992V30.8943C39.1992 31.0243 39.1016 31.1544 38.939 31.1544Z" fill="#0078D4"/>
<path d="M12.5647 6.47171H10.1582C9.8005 6.47171 9.50781 6.17903 9.50781 5.8213C9.50781 5.46358 9.8005 5.1709 10.1582 5.1709H12.5647C12.9224 5.1709 13.2151 5.46358 13.2151 5.8213C13.2151 6.17903 12.9224 6.47171 12.5647 6.47171Z" fill="#0078D4"/>
<path d="M18.0608 6.47171H15.6543C15.2966 6.47171 15.0039 6.17903 15.0039 5.8213C15.0039 5.46358 15.2966 5.1709 15.6543 5.1709H18.0608C18.4185 5.1709 18.7112 5.46358 18.7112 5.8213C18.7112 6.17903 18.4185 6.47171 18.0608 6.47171Z" fill="#0078D4"/>
<path d="M13.1504 20.4554L19.3293 23.6424V22.4066L14.5813 20.0326L19.3293 17.6586V16.4229L13.1504 19.5773V20.4554Z" fill="#0078D4"/>
<path d="M20.6953 24.0325H21.866L25.5083 14.6016H24.3051L20.6953 24.0325Z" fill="#0078D4"/>
<path d="M26.8418 16.4229V17.6586L31.6223 20.0326L26.8418 22.4066V23.6424L33.0207 20.4554V19.5773L26.8418 16.4229Z" fill="#0078D4"/>
</g>
<defs>
<clipPath id="clip0_869_1817">
<rect width="40" height="40" fill="white" transform="translate(0.5)"/>
</clipPath>
</defs>
</svg>
