<svg width="40" height="40" viewBox="0 0 40 40" fill="none" xmlns="http://www.w3.org/2000/svg">
<path d="M25.7892 12.721C21.8991 6.99787 16.7035 3.95612 13.9826 5.81985C13.683 6.03084 13.4227 6.29267 13.2134 6.59348C13.2134 6.61546 6.9145 19.3627 6.9145 19.3627L3.39801 21.7451C2.85818 22.1116 2.39584 22.5808 2.0374 23.126C1.67895 23.6712 1.43143 24.2816 1.30897 24.9225C1.18651 25.5634 1.19152 26.2221 1.3237 26.861C1.45588 27.4999 1.71265 28.1066 2.07933 28.6462L2.23757 28.8792C2.97877 29.9589 4.11573 30.7028 5.40188 30.9497C6.68802 31.1966 8.01964 30.9264 9.1079 30.1979L14.7563 38.5188C15.587 39.5429 17.1826 40.5627 19.1519 39.3627C19.5007 39.1365 19.7983 38.8397 20.0254 38.4914C20.2526 38.1432 20.4042 37.7512 20.4705 37.3407C20.5501 36.9325 20.5479 36.5125 20.4642 36.1051C20.3804 35.6977 20.2168 35.3109 19.9826 34.9671L15.0068 27.6264C15.0068 27.6264 26.7694 26.6902 26.8134 26.6726C27.1807 26.5957 27.5289 26.4463 27.8376 26.233C29.2354 25.2836 29.7365 23.2924 29.253 20.6242C28.8178 18.1671 27.5826 15.3847 25.7892 12.721ZM3.51669 28.0133L3.35845 27.7803C3.10546 27.4078 2.92841 26.9891 2.83743 26.5482C2.74645 26.1072 2.74333 25.6526 2.82826 25.2104C2.91318 24.7683 3.08448 24.3472 3.33234 23.9713C3.5802 23.5954 3.89977 23.2721 4.27274 23.0199L7.3101 20.9539L11.3189 26.8572L8.28153 28.9232C7.90899 29.1765 7.49018 29.3539 7.04903 29.4453C6.60789 29.5366 6.15306 29.5402 5.71055 29.4557C5.26803 29.3712 4.84651 29.2003 4.47008 28.9528C4.09364 28.7053 3.76968 28.386 3.51669 28.0133ZM18.7167 35.833C18.9569 36.1905 19.0456 36.6287 18.9632 37.0514C18.8808 37.4741 18.634 37.8469 18.2771 38.088C17.919 38.3285 17.4801 38.4172 17.0567 38.3348C16.6332 38.2524 16.2597 38.0056 16.0178 37.6484L10.387 29.3539L12.6508 27.8155L13.2486 27.7671L18.7167 35.833ZM12.7738 26.2594L8.40461 19.8242L12.5716 11.3275C12.976 13.7144 14.1585 16.5495 16.0486 19.3319C17.9387 22.1144 20.1365 24.2594 22.2024 25.5166L12.7738 26.2594ZM25.7409 25.2352C23.6398 25.099 20.22 22.7297 17.3233 18.4616C14.4266 14.1935 13.4859 10.1539 14.1321 8.14513C14.2488 7.76807 14.4816 7.43752 14.7974 7.2007C15.1131 6.96388 15.4957 6.83289 15.8903 6.82645C17.9738 6.82645 21.5211 9.20886 24.5013 13.6001C26.1804 16.0704 27.4024 18.655 27.7365 20.9144C28.3914 25.2352 25.7409 25.2352 25.7409 25.2352Z" fill="#0078D4"/>
<path d="M20.2946 12.883C19.7561 12.7773 19.202 12.78 18.6647 12.8909C18.1273 13.0019 17.6174 13.2188 17.1649 13.5292C17.0815 13.5869 17.0103 13.6605 16.9553 13.7457C16.9003 13.831 16.8627 13.9262 16.8445 14.026C16.8264 14.1258 16.828 14.2282 16.8494 14.3274C16.8708 14.4265 16.9116 14.5205 16.9693 14.6039C17.027 14.6873 17.1006 14.7585 17.1859 14.8135C17.2711 14.8685 17.3663 14.9061 17.4661 14.9243C17.5659 14.9424 17.6683 14.9408 17.7675 14.9194C17.8666 14.898 17.9606 14.8572 18.044 14.7995C18.3306 14.605 18.6527 14.4688 18.992 14.3988C19.3312 14.3287 19.6809 14.3262 20.0211 14.3913C20.3613 14.4564 20.6854 14.5878 20.9748 14.7782C21.2642 14.9685 21.5132 15.214 21.7078 15.5006C21.9023 15.7872 22.0385 16.1093 22.1085 16.4485C22.1786 16.7878 22.1811 17.1375 22.116 17.4777C22.0509 17.8179 21.9194 18.1419 21.7291 18.4313C21.5387 18.7207 21.2933 18.9698 21.0067 19.1643C20.8715 19.2577 20.7698 19.3918 20.7164 19.5471C20.6629 19.7024 20.6606 19.8707 20.7098 20.0274C20.7589 20.1841 20.8569 20.321 20.9894 20.418C21.1219 20.515 21.282 20.5671 21.4462 20.5665C21.6029 20.5695 21.7566 20.5234 21.8858 20.4347C22.5695 19.9715 23.1003 19.3159 23.4111 18.5508C23.7218 17.7857 23.7985 16.9456 23.6314 16.1369C23.4643 15.3282 23.0609 14.5873 22.4724 14.008C21.8838 13.4288 21.1366 13.0372 20.3253 12.883H20.2946Z" fill="#0078D4"/>
<path d="M26.7386 7.3713H26.8133C27.0036 7.37122 27.1871 7.30064 27.3283 7.17318C27.4696 7.04573 27.5586 6.87044 27.5782 6.68119L28.1716 0.914158C28.1851 0.812182 28.178 0.708533 28.1507 0.609343C28.1235 0.510154 28.0766 0.417439 28.0129 0.336684C27.9491 0.255929 27.8699 0.188775 27.7798 0.139194C27.6896 0.0896133 27.5905 0.0586135 27.4881 0.0480286C27.3858 0.0374437 27.2824 0.0474888 27.184 0.0775695C27.0857 0.10765 26.9943 0.157156 26.9154 0.223157C26.8365 0.289158 26.7717 0.370313 26.7247 0.461823C26.6777 0.553332 26.6495 0.653335 26.6419 0.755917L26.0529 6.52735C26.032 6.73018 26.0925 6.93301 26.2211 7.09126C26.3496 7.24951 26.5358 7.35024 26.7386 7.3713Z" fill="#0078D4"/>
<path d="M36.6819 6.18484C36.569 6.01458 36.3933 5.89592 36.1931 5.85474C35.993 5.81357 35.7848 5.85322 35.6138 5.96505L30.2555 9.48154C30.1164 9.57341 30.0109 9.708 29.9549 9.86504C29.8989 10.0221 29.8954 10.1931 29.945 10.3522C29.9946 10.5114 30.0945 10.6502 30.2298 10.7476C30.3651 10.8451 30.5284 10.8959 30.6951 10.8925C30.8506 10.8961 31.0036 10.8533 31.1347 10.7695L36.4929 7.25297C36.6591 7.13601 36.7723 6.95803 36.8077 6.75789C36.8431 6.55775 36.7979 6.35173 36.6819 6.18484Z" fill="#0078D4"/>
<path d="M38.3213 15.5735L32.0883 14.4526C31.8872 14.4164 31.68 14.4617 31.5122 14.5783C31.3445 14.695 31.2299 14.8735 31.1938 15.0746C31.1577 15.2757 31.2029 15.4829 31.3195 15.6506C31.4362 15.8184 31.6147 15.9329 31.8158 15.9691L38.0443 17.0899H38.1806C38.3766 17.0957 38.5674 17.0263 38.714 16.8961C38.8606 16.7659 38.9519 16.5846 38.9693 16.3893C38.9867 16.194 38.9288 15.9994 38.8076 15.8453C38.6863 15.6912 38.5108 15.5893 38.3169 15.5603L38.3213 15.5735Z" fill="#0078D4"/>
</svg>
