<svg width="20" height="20" viewBox="0 0 20 20" fill="none" xmlns="http://www.w3.org/2000/svg">
<mask id="mask0_1344_1658" style="mask-type:alpha" maskUnits="userSpaceOnUse" x="0" y="0" width="20" height="20">
<path d="M5.85846 0.0692485C4.79445 0.119469 4.06772 0.289897 3.43267 0.538733C2.77527 0.795015 2.218 1.13847 1.66364 1.69511C1.10862 2.25207 0.767773 2.81033 0.513441 3.46838C0.267197 4.10505 0.100333 4.83212 0.0533472 5.8968C0.00669722 6.96343 -0.00400078 7.30363 0.00119922 10.0191C0.00637922 12.7343 0.0183632 13.0751 0.0692272 14.1421C0.120089 15.2058 0.289881 15.9322 0.538715 16.5676C0.795321 17.225 1.13843 17.7819 1.69538 18.3366C2.25202 18.8913 2.8106 19.2319 3.46896 19.4865C4.10498 19.7325 4.83235 19.9 5.89671 19.9466C6.96332 19.9936 7.30383 20.004 10.0186 19.9988C12.7347 19.9936 13.0753 19.9816 14.1419 19.9311C15.2059 19.8802 15.932 19.7098 16.5677 19.4616C17.2251 19.2043 17.7823 18.8619 18.3367 18.3049C18.8911 17.7482 19.2319 17.1897 19.4863 16.5313C19.7325 15.8953 19.9 15.1679 19.9463 14.1042C19.993 13.0369 20.004 12.696 19.9988 9.98088C19.9936 7.26539 19.9813 6.92519 19.9308 5.8589C19.8802 4.79421 19.7098 4.06812 19.4613 3.43242C19.2044 2.77502 18.8616 2.21837 18.305 1.66336C17.7483 1.10898 17.1897 0.767479 16.5314 0.513787C15.895 0.267541 15.168 0.0997025 14.1036 0.0536945C13.037 0.00639052 12.6965 -0.00397148 9.98073 0.00121052C7.2656 0.00639252 6.92509 0.0180605 5.85846 0.0692485ZM5.97512 18.1468C5.00019 18.1043 4.47078 17.9423 4.11795 17.8066C3.65073 17.6258 3.31734 17.409 2.96644 17.0607C2.6162 16.7111 2.39879 16.3787 2.21638 15.9124C2.07932 15.5596 1.91441 15.0308 1.86873 14.0559C1.81915 13.0019 1.80782 12.6857 1.80296 10.0155C1.79777 7.34608 1.80748 7.02984 1.8535 5.97489C1.89529 5.0006 2.05828 4.47053 2.1937 4.11801C2.37448 3.65015 2.59059 3.31739 2.93955 2.9665C3.28914 2.6156 3.62156 2.39884 4.08812 2.21643C4.44064 2.07872 4.96942 1.9151 5.94401 1.86877C6.99863 1.81887 7.31452 1.80818 9.98397 1.803C12.654 1.79781 12.9703 1.80721 14.0252 1.85355C14.9995 1.89598 15.5295 2.05734 15.8818 2.19375C16.3493 2.37454 16.6827 2.59 17.0333 2.93961C17.3838 3.28921 17.6012 3.62099 17.7836 4.08853C17.9213 4.44007 18.0849 4.96949 18.131 5.94378C18.1812 6.99842 18.1925 7.31464 18.1974 9.98412C18.2026 12.6542 18.1928 12.9705 18.1465 14.0248C18.1041 14.9997 17.9424 15.5295 17.8063 15.8826C17.6255 16.3495 17.4094 16.6829 17.0601 17.0338C16.7109 17.3834 16.3785 17.6015 15.9116 17.7839C15.5597 17.9213 15.0303 18.0852 14.0563 18.1315C13.0017 18.1811 12.6858 18.1925 10.0154 18.1973C7.34595 18.2025 7.03006 18.1925 5.97512 18.1468ZM14.1273 4.65457C14.1286 5.31684 14.6671 5.85306 15.3293 5.85177C15.9919 5.85047 16.5281 5.3123 16.5272 4.65003C16.5259 3.98776 15.9874 3.45122 15.3248 3.45251C14.6622 3.45381 14.126 3.9923 14.1273 4.65457ZM4.86542 10.0097C4.87092 12.8457 7.17424 15.1397 10.0096 15.1342C12.8452 15.1287 15.1404 12.826 15.1349 9.98996C15.1294 7.15492 12.8258 4.85966 9.98981 4.86517C7.15446 4.87068 4.8599 7.17436 4.86542 10.0097ZM6.66652 10.0062C6.66328 8.16548 8.15304 6.6702 9.99337 6.66696C11.834 6.6634 13.3296 8.15252 13.3332 9.99352C13.3367 11.8345 11.847 13.3295 10.006 13.333C8.16568 13.3366 6.67008 11.8472 6.66652 10.0062Z" fill="black"/>
</mask>
<g mask="url(#mask0_1344_1658)">
<rect x="-0.837891" y="-0.837891" width="21.775" height="21.775" fill="#F7F7F7"/>
<g filter="url(#filter0_f_1344_1658)">
<ellipse cx="3.23816" cy="-1.66689" rx="12.5625" ry="8.79375" transform="rotate(-14.9317 3.23816 -1.66689)" fill="#F7F7F7"/>
</g>
<g filter="url(#filter1_f_1344_1658)">
<circle cx="20.2396" cy="-0.697917" r="11.8646" fill="#F7F7F7"/>
</g>
<g filter="url(#filter2_f_1344_1658)">
<circle cx="3.35039" cy="18.7039" r="6.7" fill="#F7F7F7"/>
</g>
</g>
<defs>
<filter id="filter0_f_1344_1658" x="-18.3238" y="-19.9742" width="43.1242" height="36.6145" filterUnits="userSpaceOnUse" color-interpolation-filters="sRGB">
<feFlood flood-opacity="0" result="BackgroundImageFix"/>
<feBlend mode="normal" in="SourceGraphic" in2="BackgroundImageFix" result="shape"/>
<feGaussianBlur stdDeviation="4.60625" result="effect1_foregroundBlur_1344_1658"/>
</filter>
<filter id="filter1_f_1344_1658" x="-2.79167" y="-23.7292" width="46.0619" height="46.0628" filterUnits="userSpaceOnUse" color-interpolation-filters="sRGB">
<feFlood flood-opacity="0" result="BackgroundImageFix"/>
<feBlend mode="normal" in="SourceGraphic" in2="BackgroundImageFix" result="shape"/>
<feGaussianBlur stdDeviation="5.58333" result="effect1_foregroundBlur_1344_1658"/>
</filter>
<filter id="filter2_f_1344_1658" x="-12.2829" y="3.07057" width="31.2671" height="31.2671" filterUnits="userSpaceOnUse" color-interpolation-filters="sRGB">
<feFlood flood-opacity="0" result="BackgroundImageFix"/>
<feBlend mode="normal" in="SourceGraphic" in2="BackgroundImageFix" result="shape"/>
<feGaussianBlur stdDeviation="4.46667" result="effect1_foregroundBlur_1344_1658"/>
</filter>
</defs>
</svg>
