<svg width="192" height="56" viewBox="0 0 192 56" fill="none" xmlns="http://www.w3.org/2000/svg">
<path d="M118.867 17.5412H113.132V28.2985C113.132 31.4296 111.799 33.9717 108.637 33.9717C105.506 33.9717 104.142 31.4296 104.142 28.2985V17.5722H98.4068V28.2985C98.4068 34.4987 102.406 39.5208 108.606 39.5208C114.806 39.5208 118.867 34.4987 118.867 28.2985V17.5412ZM170.639 11H176.343V38.9628H170.639V11ZM180.59 12.023V11.031H185.054V12.023H183.411V16.4562H182.202V12.023H180.59ZM187.348 11.031L188.619 14.7821L189.828 11.031H191.502V16.4562H190.386V12.6121H190.355L189.022 16.4562H188.092L186.759 12.643H186.728V16.4562H185.612V11.031H187.348ZM93.7257 17.2932C88.7966 16.1461 85.6965 21.0443 85.5725 21.3233C85.5105 21.4473 85.5105 21.5403 85.2935 21.5093C85.1075 21.5093 85.1075 21.3233 85.1075 21.3233L84.4874 17.5722H79.3723V38.9318H85.1075V27.3685C85.1075 26.4384 87.6495 21.8813 92.5787 23.0593C95.0587 23.6484 96.1438 24.7024 96.1438 24.7024V18.1922C95.3687 17.7892 94.5627 17.5102 93.7257 17.2932ZM132.198 22.7183C135.36 22.7183 137.933 25.2914 137.933 28.4535C137.933 31.6156 135.36 34.1887 132.198 34.1887C129.036 34.1887 126.463 31.6156 126.463 28.4535C126.494 25.2914 129.036 22.7183 132.198 22.7183ZM126.649 46V35.4287C126.649 35.4287 126.649 35.2117 126.866 35.1807C127.052 35.1807 127.083 35.3047 127.145 35.4287C127.579 36.5137 129.966 40.6368 135.298 39.3348C141.312 37.6298 144.815 31.3986 143.11 25.3844C141.405 19.3702 135.174 15.8671 129.16 17.5722C124.293 18.9362 120.913 23.4004 120.913 28.4535V46H126.649ZM162.734 28.4535C162.734 31.6156 160.161 34.1887 156.999 34.1887C153.836 34.1887 151.263 31.6156 151.263 28.4535C151.263 25.2914 153.836 22.7183 156.999 22.7183C160.161 22.7183 162.734 25.2914 162.734 28.4535ZM162.579 38.9628H168.345V28.4535C168.345 22.1913 163.292 17.1382 157.03 17.1382C150.767 17.1382 145.714 22.1913 145.714 28.4535C145.714 33.5066 149.093 37.9708 153.96 39.3348C159.262 40.6368 161.68 36.5137 162.114 35.4287C162.145 35.3047 162.207 35.1807 162.393 35.1807C162.61 35.1807 162.61 35.4287 162.61 35.4287M62.9418 15.8361H60.6478V34.0957L63.0038 34.1577C67.871 34.1577 71.0021 33.7237 71.0021 24.9814C71.0021 16.5802 68.212 15.8361 62.9418 15.8361ZM61.3918 38.9318H54.8506V11H61.8568C70.351 11 76.7682 12.55 76.7682 24.9814C76.7682 37.2268 69.948 38.9318 61.3918 38.9318Z" fill="#1A1A1A"/>
<path d="M30.2294 11.9406C26.2996 8.01079 22.5209 4.23212 21.4251 0C20.2915 4.23212 16.5506 7.97301 12.6208 11.9406C6.72605 17.8354 0 24.5236 0 34.5749C0 46.4022 9.59784 56 21.4251 56C33.2524 56 42.8502 46.4022 42.8502 34.5749C42.8502 24.5236 36.1242 17.8354 30.2294 11.9406ZM9.10661 39.5628C7.78408 39.525 2.94737 31.1741 11.9406 22.2564L17.9109 28.7557C18.0999 28.9447 18.0999 29.2847 17.9109 29.4737L17.8731 29.5115C16.4372 30.9852 10.3914 37.031 9.63563 39.1471C9.44669 39.5627 9.21997 39.5628 9.10661 39.5628ZM21.4251 50.5587C17.3441 50.5587 14.0567 47.2713 14.0567 43.1903C14.0945 41.4143 14.7368 39.6761 15.9082 38.3158C17.2308 36.691 21.4251 32.1188 21.4251 32.1188C21.4251 32.1188 25.5816 36.7665 26.942 38.3158C28.1511 39.6383 28.7935 41.4143 28.7935 43.1903C28.7935 47.2713 25.4683 50.5587 21.4251 50.5587ZM35.5196 38.6181C35.3684 38.9582 34.9906 39.5628 34.4993 39.5628C33.6302 39.6005 33.5547 39.1471 32.9123 38.2024C31.5142 36.1242 19.2335 23.2767 16.9285 20.8205C14.9258 18.6289 16.6262 17.1174 17.4575 16.2861C18.4777 15.2659 21.4251 12.3185 21.4251 12.3185C21.4251 12.3185 30.2294 20.6694 33.8569 26.3374C37.4845 32.0054 36.2753 36.9933 35.5196 38.6181Z" fill="#009CDE"/>
</svg>
