<svg width="211" height="56" viewBox="0 0 211 56" fill="none" xmlns="http://www.w3.org/2000/svg">
<path d="M78.9733 24.042H82.0503L82.7845 25.6154C83.1692 25.2657 83.5887 24.986 84.0433 24.7413C84.5328 24.4965 85.0223 24.3217 85.5118 24.1469C86.1412 23.9371 86.8055 23.8671 87.4698 23.8671C88.4838 23.8671 89.4978 24.0769 90.4419 24.4615C91.3859 24.8811 92.2251 25.4406 92.9244 26.1748C93.6587 26.9441 94.2181 27.8182 94.6377 28.7972C95.4768 30.9301 95.4768 33.2727 94.6377 35.4056C94.2531 36.3846 93.6587 37.2587 92.9244 38.028C92.2251 38.7622 91.3859 39.3566 90.4419 39.7413C89.4978 40.1608 88.4838 40.3706 87.4698 40.3706C86.8405 40.3706 86.2461 40.3007 85.6517 40.1259C85.1971 39.986 84.7426 39.8112 84.288 39.6014C83.8684 39.3916 83.4838 39.1119 83.1342 38.7972V45.8252H78.9733V24.042ZM86.9454 36.4895C87.5048 36.4895 88.0643 36.4196 88.5538 36.2098C89.0782 36 89.5328 35.6853 89.9174 35.3007C90.7216 34.4965 91.1062 33.4476 91.1062 32.1189C91.1412 31.5245 91.0363 30.965 90.8265 30.4056C90.6167 29.8462 90.302 29.3566 89.8824 28.9371C89.4978 28.5524 89.0433 28.2727 88.5188 28.0629C87.9943 27.8531 87.4698 27.7483 86.9104 27.7483C86.351 27.7483 85.8265 27.8531 85.302 28.0629C84.7775 28.2727 84.323 28.5524 83.9384 28.9371C83.1342 29.7413 82.7496 30.7902 82.7496 32.1189C82.7496 33.4476 83.1342 34.5315 83.9384 35.3007C84.323 35.6853 84.7775 36 85.302 36.2098C85.8615 36.4196 86.3859 36.5245 86.9454 36.4895ZM105.232 40.3706C104.463 40.3706 103.694 40.2308 102.959 39.9511C102.295 39.7063 101.666 39.2867 101.176 38.7622C100.687 38.2378 100.267 37.6084 100.022 36.9441C99.7426 36.1748 99.6027 35.3706 99.6027 34.5664V27.7133H97.0852V24.3916H98.1692C99.4978 24.3916 100.162 23.7622 100.162 22.4685V20.1958H103.799V24.0769H107.435V27.7483H103.799V34.4266C103.764 34.7063 103.799 34.986 103.903 35.2657C104.008 35.5455 104.148 35.7902 104.323 36C104.498 36.2098 104.743 36.3846 104.987 36.5245C105.232 36.6643 105.512 36.7343 105.792 36.7343C105.896 36.7343 106.001 36.7343 106.141 36.7343C106.281 36.7343 106.456 36.7343 106.596 36.7343C106.701 36.7343 106.84 36.6993 106.945 36.6643C107.05 36.6294 107.155 36.5944 107.225 36.5594V40.0559C107.05 40.1259 106.84 40.1958 106.631 40.2308C106.211 40.3357 105.722 40.3706 105.232 40.3706ZM113.029 22.1189C112.47 22.1189 111.91 21.9441 111.491 21.6294C111.036 21.2797 110.757 20.8252 110.617 20.3007C110.512 19.7762 110.582 19.2168 110.826 18.7273C111.071 18.2378 111.491 17.8532 112.015 17.6434C112.54 17.4336 113.099 17.3986 113.659 17.5385C114.183 17.6783 114.673 18.028 114.987 18.4825C115.302 18.9371 115.442 19.4615 115.407 20.021C115.337 20.5455 115.092 21.0699 114.708 21.4545C114.498 21.6643 114.253 21.8392 113.973 21.979C113.624 22.049 113.344 22.1189 113.029 22.1189ZM110.861 24.042H115.022V40.1958H110.861V24.042ZM119.008 24.042H122.085L122.82 25.6154C123.169 25.3007 123.554 24.986 123.938 24.7413C124.323 24.4965 124.743 24.3217 125.162 24.1469C125.687 23.972 126.246 23.8671 126.806 23.8671C127.54 23.8322 128.274 23.972 128.973 24.1818C129.498 24.3566 129.987 24.6014 130.442 24.9161C130.861 25.1958 131.211 25.5455 131.491 25.965C131.875 25.5455 132.33 25.1958 132.82 24.9161C133.309 24.6364 133.834 24.3916 134.393 24.1818C135.022 23.972 135.687 23.8322 136.386 23.8671C138.204 23.8671 139.638 24.4266 140.722 25.5455C141.806 26.6643 142.365 28.3427 142.365 30.5455V40.1958H138.204V30.8951C138.239 30.0559 137.959 29.2168 137.4 28.5874C137.19 28.3427 136.91 28.1329 136.631 27.993C136.351 27.8531 136.001 27.7483 135.687 27.7483C135.372 27.7133 135.022 27.7483 134.708 27.8531C134.393 27.958 134.113 28.0979 133.868 28.3077C133.764 28.3776 133.694 28.4825 133.624 28.5524C133.064 29.1818 132.75 30.021 132.82 30.8601V40.1608H128.659V30.8601C128.694 30.021 128.414 29.1818 127.854 28.5524C127.645 28.3077 127.365 28.0979 127.085 27.958C126.806 27.8182 126.456 27.7133 126.141 27.7133C125.827 27.6783 125.477 27.7133 125.162 27.8182C124.847 27.9231 124.568 28.0629 124.323 28.2727C124.218 28.3427 124.148 28.4476 124.078 28.5175C123.519 29.1469 123.204 29.986 123.274 30.8252V40.1259H119.113L119.008 24.042ZM148.344 22.1189C147.785 22.1189 147.225 21.9441 146.806 21.6294C146.351 21.2797 146.071 20.8252 145.931 20.3007C145.827 19.7762 145.896 19.2168 146.141 18.7273C146.386 18.2378 146.806 17.8532 147.33 17.6434C147.854 17.4336 148.414 17.3986 148.973 17.5385C149.498 17.6783 149.987 18.028 150.302 18.4825C150.617 18.9371 150.757 19.4615 150.722 20.021C150.652 20.5804 150.407 21.0699 150.022 21.4545C149.813 21.6643 149.568 21.8392 149.288 21.979C148.938 22.049 148.659 22.1189 148.344 22.1189ZM146.176 24.042H150.337V40.1958H146.176V24.042ZM153.379 36.8392L160.617 27.8881H153.379V24.042H165.861V27.3636L158.624 36.3497H166.211V40.1958H153.344V36.8392H153.379ZM176.771 40.3706C175.652 40.3706 174.568 40.1608 173.554 39.7063C172.575 39.2867 171.666 38.6923 170.896 37.9231C170.127 37.1539 169.498 36.2797 169.078 35.3007C168.624 34.2867 168.414 33.2028 168.414 32.0839C168.414 30.965 168.624 29.8811 169.078 28.8671C169.498 27.8881 170.127 27.014 170.896 26.2448C171.666 25.5105 172.54 24.8811 173.554 24.4615C174.533 24.042 175.617 23.8322 176.701 23.7972C177.785 23.7972 178.834 24.007 179.847 24.3916C180.792 24.7762 181.666 25.3706 182.365 26.0699C183.099 26.8392 183.694 27.7133 184.078 28.6923C184.498 29.7762 184.708 30.8951 184.708 32.049C184.708 32.2238 184.708 32.3986 184.673 32.6084C184.638 32.7832 184.638 32.958 184.603 33.1329C184.568 33.3077 184.568 33.4825 184.533 33.6573H172.959C173.134 34.4266 173.554 35.1259 174.183 35.6504C174.917 36.2098 175.827 36.5245 176.771 36.4545C177.225 36.4545 177.715 36.4196 178.169 36.2797C178.519 36.1748 178.833 36.035 179.113 35.8601C179.393 35.6853 179.638 35.4755 179.847 35.2308H184.183C183.938 35.8951 183.589 36.4895 183.169 37.049C182.715 37.6783 182.155 38.2378 181.526 38.6923C180.861 39.1818 180.127 39.5664 179.358 39.8811C178.554 40.2308 177.68 40.3706 176.771 40.3706ZM180.757 30.8951C180.582 29.986 180.092 29.1818 179.358 28.5874C178.624 27.993 177.715 27.6783 176.771 27.6783C175.827 27.6783 174.917 27.993 174.183 28.5874C173.449 29.1818 172.959 29.986 172.785 30.8951H180.757ZM187.82 18.0629H191.98V40.1958H187.82V18.0629ZM198.309 46C198.134 46 197.924 46 197.75 45.965C197.61 45.965 197.435 45.9301 197.295 45.8951C197.155 45.8951 197.015 45.8252 196.875 45.7902V42.4685C197.645 42.5035 198.379 42.2937 199.008 41.8741C199.498 41.4545 199.917 40.965 200.162 40.3706L200.512 39.4965L194.148 24.042H198.484L202.645 34.5664L206.456 24.042H210.792C209.603 26.979 208.519 29.6713 207.575 32.049C207.155 33.0629 206.771 34.0769 206.351 35.0559C205.966 36.035 205.617 36.9441 205.267 37.7483C204.952 38.5525 204.673 39.2168 204.463 39.7762C204.253 40.3007 204.113 40.6154 204.078 40.7203C203.729 41.5594 203.309 42.3636 202.854 43.1678C202.505 43.7622 202.085 44.3217 201.561 44.8112C201.141 45.1958 200.617 45.5105 200.092 45.7203C199.533 45.8951 198.903 46 198.309 46ZM63.5538 16C61.0712 16 58.6587 16.6993 56.5608 18.0629C54.4978 19.3916 52.8894 21.3147 51.9454 23.5175C51.0013 25.7552 50.7566 28.2028 51.2461 30.5455C51.7356 32.9231 52.9244 35.0909 54.6726 36.7692C56.4209 38.4825 58.6587 39.6364 61.1062 40.0909C63.5538 40.5455 66.0712 40.3357 68.3789 39.3916C70.6866 38.4825 72.6447 36.9091 74.0083 34.9161C75.3719 32.9231 76.1412 30.5455 76.1412 28.1678C76.1412 26.5594 75.8265 24.986 75.1971 23.5175C74.5677 22.049 73.6237 20.6853 72.4698 19.5664C71.316 18.4476 69.9174 17.5385 68.3789 16.9441C66.8405 16.3147 65.1971 16 63.5538 16ZM63.5538 36.1399C61.9454 36.1748 60.337 35.7203 58.9733 34.8462C57.6097 33.972 56.5608 32.7483 55.8964 31.3147C55.267 29.8811 55.0922 28.2727 55.3719 26.7343C55.6866 25.1958 56.4209 23.7622 57.5747 22.6434C58.6936 21.5245 60.1622 20.7553 61.7705 20.4406C63.344 20.1259 65.0223 20.2657 66.5258 20.8601C68.0293 21.4545 69.323 22.4685 70.2321 23.7622C71.1412 25.0559 71.6307 26.5944 71.6656 28.1678V28.2727C71.6656 30.3706 70.8265 32.3636 69.288 33.8671C67.7845 35.2657 65.7216 36.1049 63.5538 36.1399Z" fill="#1A1A1A"/>
<path d="M19.3131 30.7071V37.4545C24.4444 37.4545 29.3737 35.4747 33.01 31.9596C36.6464 28.4444 38.707 23.6363 38.707 18.6667H31.7575C31.7575 21.8586 30.4242 24.9293 28.1211 27.1919C25.7777 29.4141 22.6262 30.7071 19.3131 30.7071Z" fill="#3BE081"/>
<path d="M19.3131 49.2929C16.0404 49.2929 12.8889 48.0404 10.5859 45.7778C8.28283 43.5152 6.9495 40.4849 6.9495 37.2929C6.9495 34.101 8.24243 31.0707 10.5859 28.8081C12.8889 26.5455 16.0404 25.2929 19.3131 25.2929V18.5859C16.7677 18.5859 14.2626 19.0707 11.9596 20C9.61616 20.9293 7.51515 22.303 5.69697 24.0404C3.91919 25.7778 2.46465 27.8384 1.49495 30.101C0.525252 32.3636 0.040404 34.7879 0 37.2525C0 39.7172 0.484849 42.1414 1.45455 44.404C2.42424 46.6667 3.83838 48.7273 5.61616 50.4646C7.39394 52.202 9.53536 53.5758 11.8788 54.5051C14.2222 55.4343 16.7273 55.9192 19.2323 55.9192H19.2727V49.2929H19.3131Z" fill="#0037FF"/>
<path d="M19.3131 49.2929L19.3131 56C24.404 56 29.3333 54.0202 32.9292 50.5455C36.5252 47.0707 38.5858 42.303 38.5858 37.3333H31.6767C31.6767 40.5252 30.3838 43.5555 28.0403 45.8182C25.7373 48 22.5859 49.2525 19.3131 49.2929Z" fill="#00CCFF"/>
<path d="M19.3131 11.9596V18.6667C24.404 18.6667 29.3333 16.6869 32.9292 13.2121C36.5252 9.69698 38.5858 4.9697 38.5858 0H31.6767C31.6767 3.19192 30.3838 6.22222 28.0403 8.48485C25.7373 10.6667 22.5858 11.9596 19.3131 11.9596Z" fill="#861DFF"/>
<path d="M38.6667 11.9596V18.6667C43.7576 18.6667 48.6869 16.6869 52.2828 13.2121C55.8788 9.69698 57.9394 4.9697 57.9394 0H51.0303C51.0303 3.19192 49.7374 6.22222 47.3939 8.48485C45.0909 10.6667 41.9798 11.9596 38.6667 11.9596Z" fill="#FF8110"/>
</svg>
