<svg width="253" height="56" viewBox="0 0 253 56" fill="none" xmlns="http://www.w3.org/2000/svg">
<path d="M244 39.3801V34.6568H233.461V29.9336H242.908V25.5646H233.461V21.2546H243.439V16.6495H228.148V39.3801H244ZM215.395 25.0037C215.159 25.3875 214.834 25.6827 214.45 25.8303C214.066 26.0074 213.624 26.155 213.181 26.214C212.679 26.2731 212.236 26.3321 211.793 26.3321H209.196V21.0185H212.148C212.531 21.0185 212.974 21.0775 213.417 21.1365C213.86 21.1956 214.244 21.3137 214.627 21.5203C214.952 21.6974 215.306 21.9631 215.513 22.2878C215.749 22.6125 215.838 23.0554 215.838 23.5572C215.779 24.1771 215.69 24.6199 215.395 25.0037ZM222.45 39.3801L216.517 29.6384C218.022 29.1956 219.114 28.428 220 27.3653C220.827 26.3026 221.269 25.0332 221.269 23.4982C221.269 22.1697 221.033 21.107 220.561 20.2214C220.059 19.3358 219.41 18.6273 218.554 18.1255C217.727 17.5646 216.782 17.2398 215.779 16.9742C214.716 16.738 213.683 16.6495 212.561 16.6495H203.911V39.3801H209.284V30.4059H211.173L216.103 39.4391H222.45V39.3801ZM191.454 30.7306C191.129 31.6162 190.686 32.3247 190.125 32.9446C189.565 33.5646 188.856 34.0664 188.089 34.3911C187.321 34.7159 186.435 34.952 185.491 34.952C184.546 34.952 183.661 34.7749 182.893 34.3911C182.125 34.0664 181.387 33.5646 180.856 32.9446C180.295 32.3247 179.852 31.5572 179.528 30.7306C179.203 29.845 179.026 28.9004 179.026 27.8967C179.026 26.893 179.203 26.0074 179.469 25.1218C179.793 24.2952 180.236 23.5277 180.797 22.9077C181.358 22.2878 182.066 21.786 182.834 21.4613C183.601 21.1365 184.487 20.9004 185.432 20.9004C186.376 20.9004 187.262 21.0775 188.089 21.4613C188.856 21.786 189.594 22.2878 190.125 22.9077C190.686 23.5277 191.129 24.2362 191.454 25.1218C191.779 25.9483 191.956 26.893 191.956 27.8967C191.956 28.9004 191.779 29.845 191.454 30.7306ZM196.886 22.9668C196.266 21.5203 195.38 20.2509 194.288 19.2472C193.166 18.1845 191.838 17.417 190.362 16.8561C188.856 16.2952 187.203 16.0295 185.432 16.0295C183.661 16.0295 182.007 16.2952 180.502 16.8561C178.996 17.417 177.668 18.1845 176.576 19.2472C175.454 20.31 174.627 21.5203 173.978 22.9668C173.358 24.4133 173.033 26.0664 173.033 27.8967C173.033 29.6679 173.358 31.321 173.978 32.8266C174.598 34.3321 175.483 35.6015 176.576 36.6642C177.697 37.7269 178.967 38.5535 180.502 39.1144C182.007 39.6753 183.661 40 185.432 40C187.203 40 188.856 39.7343 190.362 39.1144C191.867 38.5535 193.196 37.7269 194.288 36.6642C195.41 35.6015 196.236 34.3321 196.886 32.8266C197.506 31.321 197.83 29.7269 197.83 27.8967C197.83 26.0664 197.506 24.4133 196.886 22.9668ZM169.786 36.2214L165.948 32.6199C165.446 33.2989 164.797 33.8303 164 34.2731C163.173 34.7159 162.229 34.952 161.107 34.952C160.162 34.952 159.277 34.7749 158.509 34.4502C157.742 34.1255 157.004 33.6236 156.472 33.0037C155.911 32.3838 155.469 31.6753 155.144 30.7897C154.819 29.9631 154.642 29.0185 154.642 27.9557C154.642 26.952 154.819 26.0074 155.144 25.1808C155.469 24.3542 155.911 23.6162 156.472 22.9668C157.033 22.3469 157.742 21.845 158.509 21.5203C159.277 21.1956 160.162 20.9594 161.166 20.9594C162.052 20.9594 162.878 21.1365 163.705 21.4613C164.531 21.786 165.21 22.3469 165.712 23.0258L169.432 19.3063C168.487 18.1845 167.218 17.3579 165.653 16.8266C164.089 16.2952 162.554 16 160.93 16C159.218 16 157.594 16.2657 156.118 16.8266C154.613 17.3875 153.284 18.155 152.192 19.2177C151.1 20.2804 150.185 21.4908 149.594 22.9963C149.004 24.5019 148.649 26.0959 148.649 27.9262C148.649 29.6974 148.974 31.321 149.594 32.7971C150.214 34.3026 151.1 35.572 152.133 36.6347C153.255 37.6974 154.524 38.524 156 39.0849C157.476 39.6458 159.1 39.9705 160.871 39.9705C162.819 39.9705 164.472 39.6458 165.978 38.9668C167.513 38.2583 168.723 37.3727 169.786 36.2214ZM143.572 39.3801V34.6568H133.033V29.9336H142.45V25.5646H133.033V21.2546H143.011V16.6495H127.72V39.3801H143.572ZM121.668 21.3137V16.5904H103.306V21.3137H109.742V39.321H115.232V21.3137H121.668ZM97.3432 16.6495H91.7934V39.3801H97.3432V16.6495ZM85.1513 18.8635C84.1476 17.9188 82.9963 17.2694 81.6679 16.7675C80.3395 16.3247 79.0111 16.059 77.7417 16.059C76.679 16.059 75.6458 16.1771 74.583 16.4428C73.5203 16.7085 72.5756 17.1218 71.7491 17.7122C70.9225 18.2731 70.2435 19.0406 69.7417 19.9262C69.2399 20.8118 68.9742 21.9336 68.9742 23.1439C68.9742 24.2066 69.1513 25.0332 69.476 25.7417C69.8007 26.4502 70.2435 27.0701 70.8044 27.572C71.3653 28.0738 71.9557 28.5166 72.6937 28.7823C73.4022 29.107 74.0812 29.4022 74.8487 29.6089C75.5572 29.845 76.2952 30.0517 76.8561 30.2878C77.476 30.524 77.9188 30.7306 78.3616 30.9668C78.7454 31.203 79.0701 31.4686 79.3063 31.7934C79.5424 32.059 79.631 32.4723 79.631 32.9151C79.631 33.3579 79.5129 33.7417 79.3653 34.0664C79.2177 34.3912 78.9816 34.6273 78.6864 34.8339C78.4207 35.0111 78.0664 35.1587 77.6826 35.2768C77.2989 35.3948 76.9151 35.3948 76.5314 35.3948C75.6458 35.3948 74.7011 35.1587 73.8155 34.7159C72.9299 34.2731 72.1624 33.6531 71.6015 33.0037L68 36.6642C69.0037 37.7269 70.2731 38.4945 71.7786 39.1144C73.2841 39.6753 74.8782 39.941 76.5018 39.941C77.6236 39.941 78.7159 39.7638 79.7196 39.4982C80.7823 39.2325 81.7269 38.7306 82.4945 38.1107C83.321 37.4908 83.941 36.7232 84.4428 35.7196C84.9447 34.7749 85.1513 33.6236 85.1513 32.3247C85.1513 31.203 84.9151 30.2288 84.4723 29.4908C84.0295 28.7233 83.4686 28.1033 82.7601 27.6015C82.0812 27.0996 81.3137 26.6568 80.4871 26.3911C79.6605 26.0664 78.834 25.7712 78.0959 25.5646C77.5351 25.3875 77.0922 25.2399 76.6494 25.0627C76.2066 24.8856 75.8819 24.738 75.5277 24.5018C75.203 24.3247 74.9668 24.059 74.8192 23.8229C74.6421 23.5572 74.583 23.262 74.583 22.8782C74.583 22.4354 74.7011 22.0517 74.9077 21.7565C75.1439 21.4908 75.3506 21.2546 75.6753 21.048C75.941 20.8709 76.2952 20.7232 76.679 20.6642C77.0627 20.6052 77.3875 20.5461 77.8007 20.5461C78.5092 20.5461 79.2472 20.7232 80.0148 21.107C80.7823 21.4317 81.4022 21.9336 81.845 22.5535L85.1513 18.8635Z" fill="#1A1A1A"/>
<path d="M249.934 18.7454V18.0369H250.317C250.435 18.0369 250.554 18.0369 250.642 18.0959C250.731 18.155 250.819 18.214 250.819 18.3616C250.819 18.5387 250.76 18.6273 250.642 18.6273C250.524 18.6863 250.406 18.6863 250.258 18.6863H249.934V18.7454ZM249.491 20.1919H249.934V19.1292H250.258L250.878 20.1919H251.439L250.76 19.0701C250.937 19.0111 251.085 18.952 251.203 18.834C251.321 18.7159 251.38 18.5683 251.38 18.3911C251.38 18.2731 251.38 18.1255 251.321 18.0664C251.262 17.9483 251.203 17.8893 251.085 17.8303C250.967 17.7712 250.908 17.7122 250.819 17.7122C250.731 17.7122 250.583 17.6531 250.495 17.6531H249.609V20.1328H249.491V20.1919ZM248.605 18.1845C248.723 17.9483 248.841 17.7417 248.989 17.5646C249.166 17.3874 249.373 17.2399 249.609 17.1808C249.845 17.0627 250.111 17.0037 250.317 17.0037C250.583 17.0037 250.819 17.0627 251.026 17.1808C251.262 17.2989 251.469 17.417 251.646 17.5646C251.823 17.7122 251.971 17.9483 252.03 18.1845C252.148 18.4207 252.207 18.6863 252.207 18.893C252.207 19.1587 252.148 19.3948 252.03 19.6015C251.911 19.8376 251.793 20.0443 251.646 20.2214C251.469 20.3985 251.262 20.5461 251.026 20.6052C250.79 20.7232 250.524 20.7823 250.317 20.7823C250.052 20.7823 249.816 20.7232 249.609 20.6052C249.373 20.4871 249.166 20.369 248.989 20.2214C248.812 20.0443 248.664 19.8376 248.605 19.6015C248.487 19.3653 248.428 19.0996 248.428 18.893C248.428 18.6273 248.487 18.4207 248.605 18.1845ZM248.28 19.8081C248.399 20.0738 248.546 20.31 248.782 20.5166C249.018 20.7528 249.225 20.8413 249.491 21.0184C249.756 21.1365 250.052 21.1956 250.376 21.1956C250.701 21.1956 250.996 21.1365 251.262 21.0184C251.528 20.9004 251.764 20.7528 251.971 20.5166C252.207 20.2804 252.354 20.0738 252.472 19.8081C252.59 19.5424 252.649 19.2472 252.649 18.9225C252.649 18.5978 252.59 18.3026 252.472 18.0369C252.354 17.7712 252.207 17.5351 251.971 17.3284C251.734 17.0923 251.528 16.9446 251.262 16.8266C250.996 16.7085 250.701 16.6495 250.376 16.6495C250.052 16.6495 249.756 16.7085 249.491 16.8266C249.225 16.9446 248.989 17.0923 248.782 17.3284C248.546 17.5646 248.399 17.7712 248.28 18.0369C248.162 18.3026 248.103 18.5978 248.103 18.9225C248.103 19.2472 248.162 19.5424 248.28 19.8081Z" fill="#1A1A1A"/>
<path d="M26.7068 40.8722C28.9023 40.6015 31.0075 39.9098 32.9323 38.8271C37.6842 36.1804 40.391 31.6692 40.6015 26.0752V25.5639H47.218C46.8271 22.2256 45.5338 19.188 43.6692 16.5714L36.9624 20.8722C39.0075 24.0902 39.2782 27.5789 37.6842 31.1579C35.8496 35.4586 31.5789 39.1278 26.7068 40.8722Z" fill="#EB1F1F"/>
<path d="M47.3383 26.5865H41.6241C41.2331 32.2406 38.2857 37.0226 33.4436 39.6992C30.6767 41.2331 27.5188 42.015 24.3008 42.015C21.8045 42.015 19.2782 41.5639 16.8421 40.6617C19.7895 42.4662 23.0677 43.4887 26.4361 43.4887H26.4962C32.6015 43.4887 38.1353 40.2707 41.2331 34.797L41.5038 34.3459L45.2932 36.782C46.6466 34.1353 47.3684 31.188 47.3684 28.0301C47.3684 27.5489 47.3383 27.0977 47.3383 26.5865Z" fill="#EB1F1F"/>
<path d="M26.4962 44.4812C20.3308 44.4812 14.5865 41.4436 10.5263 36.2406C13.6241 42.797 20.3007 47.3684 28.0301 47.3684C35.188 47.3684 41.4737 43.4586 44.812 37.6541L41.8045 35.7895C38.4662 41.203 32.812 44.4812 26.4962 44.4812Z" fill="#EB1F1F"/>
<path d="M28 48.391C16.7519 48.391 7.60902 39.3083 7.60902 28C7.60902 16.7519 16.6917 7.60903 28 7.60903C39.3083 7.60903 48.391 16.6917 48.391 28C48.391 39.2481 39.2481 48.391 28 48.391ZM28 0C12.5414 0 0 12.5414 0 28C0 43.4586 12.5414 56 28 56C43.4586 56 56 43.4586 56 28C56 12.5414 43.4887 0 28 0Z" fill="#EB1F1F"/>
</svg>
